<svg xmlns="http://www.w3.org/2000/svg" xmlns:xlink="http://www.w3.org/1999/xlink" width="24" height="24" viewBox="0 0 24 24">
    <defs>
        <path id="ic-chrome-reader-mode__a" d="M13 12h7v1.5h-7V12zm0-2.5h7V11h-7V9.5zm0 5h7V16h-7v-1.5zM21 4H3c-1.1 0-2 .9-2 2v13c0 1.1.9 2 2 2h18c1.1 0 2-.9 2-2V6c0-1.1-.9-2-2-2zm0 15h-9V6h9v13z"/>
    </defs>
    <g fill="none" fill-rule="evenodd">
        <path d="M0 0L24 0 24 24 0 24z"/>
        <mask id="ic-chrome-reader-mode__b" fill="#fff">
            <use xlink:href="#ic-chrome-reader-mode__a"/>
        </mask>
        <use fill="#000" xlink:href="#ic-chrome-reader-mode__a"/>
        <g fill="currentColor" fill-rule="nonzero" mask="url(#ic-chrome-reader-mode__b)">
            <path d="M0 0L24 0 24 24 0 24z"/>
        </g>
    </g>
</svg>
